<?xml version="1.0" encoding="UTF-8"?>
<svg width="58px" height="53px" viewBox="0 0 58 53" version="1.1" xmlns="http://www.w3.org/2000/svg" xmlns:xlink="http://www.w3.org/1999/xlink">
    <!-- Generator: Sketch 51.3 (57544) - http://www.bohemiancoding.com/sketch -->
    <title>LinkedIn-black</title>
    <desc>Created with Sketch.</desc>
    <defs></defs>
    <g id="Page-1" stroke="none" stroke-width="1" fill="none" fill-rule="evenodd">
        <g id="Desktop" transform="translate(-922.000000, -810.000000)" fill="#CF2435">
            <g id="Footer-Section" transform="translate(0.000000, 769.000000)">
                <path d="M980,94 L967.181209,94 L967.181209,75.4642552 C967.181209,70.6125493 965.176035,67.3004244 960.766698,67.3004244 C957.39405,67.3004244 955.518462,69.5355178 954.645461,71.6895807 C954.318086,72.4627475 954.369238,73.5397789 954.369238,74.6168104 L954.369238,94 L941.669802,94 C941.669802,94 941.83349,61.1657343 941.669802,58.181108 L954.369238,58.181108 L954.369238,63.8026044 C955.119473,61.3446768 959.177563,57.836728 965.653457,57.836728 C973.687794,57.836728 980,62.9889223 980,74.083359 L980,94 L980,94 Z M928.82714,53.7007923 L928.745296,53.7007923 C924.653104,53.7007923 922,50.962634 922,47.4918242 C922,43.9534889 924.731538,41.2727273 928.905574,41.2727273 C933.076199,41.2727273 935.64064,43.9467364 935.722484,47.4816954 C935.722484,50.9525051 933.076199,53.7007923 928.82714,53.7007923 L928.82714,53.7007923 L928.82714,53.7007923 Z M923.462959,58.181108 L934.767639,58.181108 L934.767639,94 L923.462959,94 L923.462959,58.181108 L923.462959,58.181108 Z" id="LinkedIn"></path>
            </g>
        </g>
    </g>
</svg>